<svg width="20" height="20" viewBox="0 0 70 70" fill="none" xmlns="http://www.w3.org/2000/svg">
<path d="M66.9579 26.3038H60.8707V20.2025C60.8718 19.6014 60.7542 19.006 60.5249 18.4505C60.2959 17.8949 59.9595 17.3902 59.5355 16.9651C59.1114 16.54 58.6078 16.203 58.0534 15.9733C57.4993 15.7436 56.9051 15.6258 56.3054 15.6266H33.0986C32.4191 15.6267 31.7482 15.4747 31.1348 15.1818C30.5214 14.8889 29.9809 14.4624 29.5528 13.9335L26.5702 10.2575C26.0016 9.55239 25.2828 8.98369 24.4665 8.59308C23.6503 8.20248 22.7572 7.99982 21.8527 8H4.56538C3.9656 7.9992 3.3716 8.117 2.81734 8.34668C2.26311 8.57639 1.7595 8.9134 1.33542 9.33849C0.911327 9.76358 0.575079 10.2683 0.345937 10.8239C0.116792 11.3794 -0.000748819 11.9748 5.46758e-05 12.576V57.6795C-0.00311182 58.3666 0.131291 59.0475 0.395294 59.6815C0.6593 60.3156 1.04755 60.89 1.53704 61.371C2.01687 61.8615 2.59002 62.2507 3.22259 62.5153C3.85516 62.78 4.5343 62.9147 5.21971 62.9114H56.4424C57.5731 62.9111 58.6732 62.5439 59.5786 61.8648C60.4836 61.1857 61.1454 60.231 61.4642 59.1438L69.8797 30.2086C70.0108 29.754 70.0353 29.275 69.9502 28.8095C69.8655 28.3439 69.6738 27.9045 69.3903 27.5259C69.1069 27.1473 68.7399 26.8398 68.3177 26.6277C67.8955 26.4157 67.4302 26.3048 66.9579 26.3038Z" fill="#F9F9FF"/>
<mask id="mask0_561_123" style="mask-type:luminance" maskUnits="userSpaceOnUse" x="8" y="8" width="47" height="46">
<path d="M54.7688 8.03027H8.96484V53.941H54.7688V8.03027Z" fill="white"/>
</mask>
<g mask="url(#mask0_561_123)">
<path d="M11.1112 30.2685C21.8765 30.2685 24.7092 43.8982 24.7092 43.8982C24.7092 43.8982 27.5419 30.2685 38.3071 30.2685C27.5419 30.2685 24.7092 16.6388 24.7092 16.6388C24.7092 16.6388 21.8765 30.2685 11.1112 30.2685ZM32.5817 43.8982C39.2446 45.3423 39.7384 51.7889 39.7384 51.7889C39.7384 51.7889 40.2326 45.3423 46.8953 43.8982C40.2326 42.454 39.7384 36.0074 39.7384 36.0074C39.7384 36.0074 39.2446 42.454 32.5817 43.8982ZM34.0131 20.2256C36.4269 20.692 38.6303 21.9168 40.303 23.7225C41.9758 25.5282 43.0316 27.821 43.3169 30.2685C43.6025 27.821 44.658 25.5282 46.3311 23.7225C48.0038 21.9168 50.2068 20.692 52.621 20.2256C50.2068 19.7592 48.0038 18.5343 46.3311 16.7286C44.658 14.9229 43.6025 12.6301 43.3169 10.1826C43.0316 12.6301 41.9758 14.9229 40.303 16.7286C38.6303 18.5343 36.4269 19.7592 34.0131 20.2256Z" fill="#4D49FC"/>
<path d="M14.0267 17.2124C14.0267 17.2124 13.7439 13.4615 9.92841 12.6213C13.7439 11.7812 14.0267 8.03027 14.0267 8.03027C14.0267 8.03027 14.3094 11.7812 18.1249 12.6213C14.3094 13.4615 14.0267 17.2124 14.0267 17.2124Z" fill="#4D49FC"/>
</g>
<path d="M66.9565 26.3037H23.6971C22.5679 26.304 21.4692 26.6714 20.5659 27.3507C19.6626 28.03 19.0035 28.9846 18.6874 30.0713L10.2264 59.1451C9.91034 60.2317 9.2514 61.1857 8.34842 61.8647C7.44544 62.5438 6.3471 62.911 5.21826 62.9113H56.4457C57.5753 62.9117 58.6747 62.5445 59.5786 61.8655C60.4825 61.186 61.1421 60.2309 61.4584 59.1437L69.8783 30.2085C70.0105 29.7539 70.0354 29.2746 69.951 28.8086C69.8663 28.3427 69.6749 27.9028 69.3915 27.524C69.1077 27.1451 68.7403 26.8376 68.3177 26.6258C67.8948 26.414 67.4291 26.3037 66.9565 26.3037Z" fill="#DFDFFF"/>
</svg>
