<svg
            width="13"
            height="14"
            viewBox="0 0 13 14"
            fill="none"
            xmlns="http://www.w3.org/2000/svg"
            class="pnpnm-home-icon"
        >
            <path
                d="M0 12.4519V5.08C0 4.84153 0.0533332 4.61563 0.16 4.40229C0.266805 4.18882 0.414306 4.01306 0.6025 3.875L5.34625 0.30125C5.60944 0.100417 5.91028 0 6.24875 0C6.58722 0 6.88889 0.100417 7.15375 0.30125L11.8975 3.875C12.0857 4.01306 12.2332 4.18882 12.34 4.40229C12.4467 4.61563 12.5 4.84153 12.5 5.08V12.4519C12.5 12.7927 12.3769 13.0863 12.1306 13.3325C11.8844 13.5788 11.5908 13.7019 11.25 13.7019H8.58979C8.37632 13.7019 8.19743 13.6297 8.05312 13.4852C7.90868 13.3409 7.83646 13.162 7.83646 12.9485V8.87813C7.83646 8.66479 7.76431 8.4859 7.62 8.34146C7.47569 8.19715 7.29681 8.125 7.08333 8.125H5.41667C5.20319 8.125 5.02431 8.19715 4.88 8.34146C4.73569 8.4859 4.66354 8.66479 4.66354 8.87813V12.9485C4.66354 13.162 4.59132 13.3409 4.44688 13.4852C4.30257 13.6297 4.12368 13.7019 3.91021 13.7019H1.25C0.909167 13.7019 0.615625 13.5788 0.369375 13.3325C0.123125 13.0863 0 12.7927 0 12.4519Z"
                fill="currentColor"
            />
        </svg>
