<svg width="20" height="20" viewBox="0 0 20 20" fill="none" xmlns="http://www.w3.org/2000/svg">
<g clip-path="url(#clip0_345_4499)">
<path d="M7.06773 3.00225C7.32081 3.01058 7.53015 3.10486 7.68624 3.28441C7.73818 3.34415 7.77217 3.41672 7.79943 3.49104L8.17707 4.52071C8.2544 4.68117 8.37067 4.83086 8.47627 4.94017C8.61067 5.07855 8.81387 5.15555 9.0928 5.15555H16.9999C17.5522 5.15555 18 5.60334 17.9999 6.15567L17.9989 14.8479C17.9845 15.3734 17.8389 15.7062 17.5531 16.0012C17.2517 16.3119 16.8155 16.4632 16.2677 16.4632H3.73227C3.18507 16.4632 2.7488 16.3125 2.44747 16.0012C2.14613 15.6906 2 15.2393 2 14.6739V4.00181C2 3.44949 2.44778 3.00176 3.00011 3.00182L7.06773 3.00225Z" fill="#A0C4FF"/>
<path d="M7.06773 3.00249C7.32081 3.01082 7.53015 3.10511 7.68624 3.28466C7.73818 3.34439 7.77217 3.41697 7.79943 3.49128L8.17707 4.52095C8.2544 4.68141 8.37067 4.83111 8.47627 4.94041C8.61067 5.0788 8.81387 5.1558 9.0928 5.1558H16.9999C17.5522 5.1558 18 5.60358 17.9999 6.15591L17.9989 14.8481C17.9845 15.3736 17.8389 15.7064 17.5531 16.0015C17.2517 16.3122 16.8155 16.4635 16.2677 16.4635H3.73227C3.18507 16.4635 2.7488 16.3127 2.44747 16.0015C2.14613 15.6908 2 15.2396 2 14.6742V4.00206C2 3.44973 2.44778 3.002 3.00011 3.00206L7.06773 3.00249Z" fill="black" fill-opacity="0.2"/>
<path d="M7.06773 3.00054C7.32081 3.00887 7.53015 3.10315 7.68624 3.2827C7.73818 3.34244 7.77217 3.41501 7.79943 3.48933L8.17707 4.519C8.2544 4.67946 8.37067 4.82915 8.47627 4.93846C8.61067 5.07685 8.81387 5.15385 9.0928 5.15385H16.9999C17.5522 5.15385 17.9999 5.60163 17.9999 6.15396L17.9989 14.2215C17.9845 14.7471 17.8389 15.166 17.5531 15.4611C17.2517 15.7718 16.8155 15.9231 16.2677 15.9231H3.73227C3.18507 15.9231 2.7488 15.7723 2.44747 15.4611C2.14613 15.1504 2 14.6992 2 14.1338V4.00011C2 3.44778 2.44778 3.00005 3.00011 3.00011L7.06773 3.00054Z" fill="#A0C4FF"/>
</g>
<defs>
<clipPath id="clip0_345_4499">
<rect width="16" height="14" fill="white" transform="translate(2 3)"/>
</clipPath>
</defs>
</svg>
