<svg
            width="300"
            height="220"
            viewBox="0 0 300 220"
            fill="none"
            xmlns="http://www.w3.org/2000/svg"
        >
            <g clip-path="url(#clip0_251_3065)">
                <rect width="300" height="220" fill="white" />
                <rect
                    width="300"
                    height="900"
                    transform="translate(0 -68)"
                    fill="white"
                />
                <rect
                    x="14.25"
                    y="14.25"
                    width="271.5"
                    height="29.5"
                    rx="3.75"
                    fill="#F9F9FF"
                />
                <rect
                    x="14.25"
                    y="14.25"
                    width="271.5"
                    height="29.5"
                    rx="3.75"
                    stroke="#DFDFFF"
                    stroke-width="0.5"
                />
                <mask
                    id="mask0_251_3065"
                    style="mask-type:alpha"
                    maskUnits="userSpaceOnUse"
                    x="18"
                    y="19"
                    width="20"
                    height="20"
                >
                    <rect x="18" y="19" width="20" height="20" fill="#D9D9D9" />
                </mask>
                <g mask="url(#mask0_251_3065)">
                    <path
                        d="M21.75 34.8333V27.4615C21.75 27.223 21.8033 26.9971 21.91 26.7838C22.0168 26.5703 22.1643 26.3945 22.3525 26.2565L27.0963 22.6827C27.3594 22.4819 27.6603 22.3815 27.9988 22.3815C28.3372 22.3815 28.6389 22.4819 28.9037 22.6827L33.6475 26.2565C33.8357 26.3945 33.9832 26.5703 34.09 26.7838C34.1967 26.9971 34.25 27.223 34.25 27.4615V34.8333C34.25 35.1742 34.1269 35.4677 33.8806 35.714C33.6344 35.9602 33.3408 36.0833 33 36.0833H30.3398C30.1263 36.0833 29.9474 36.0111 29.8031 35.8667C29.6587 35.7224 29.5865 35.5435 29.5865 35.33V31.2596C29.5865 31.0463 29.5143 30.8674 29.37 30.7229C29.2257 30.5786 29.0468 30.5065 28.8333 30.5065H27.1667C26.9532 30.5065 26.7743 30.5786 26.63 30.7229C26.4857 30.8674 26.4135 31.0463 26.4135 31.2596V35.33C26.4135 35.5435 26.3413 35.7224 26.1969 35.8667C26.0526 36.0111 25.8737 36.0833 25.6602 36.0833H23C22.6592 36.0833 22.3656 35.9602 22.1194 35.714C21.8731 35.4677 21.75 35.1742 21.75 34.8333Z"
                        fill="#ADACFF"
                    />
                </g>
                <path
                    d="M42 29C42 25.6863 44.6863 23 48 23H95C98.3137 23 101 25.6863 101 29C101 32.3137 98.3137 35 95 35H48C44.6863 35 42 32.3137 42 29Z"
                    fill="#ADACFF"
                />
                <path
                    d="M254 18.25H280C280.966 18.25 281.75 19.0335 281.75 20V38C281.75 38.9665 280.966 39.75 280 39.75H254C253.034 39.75 252.25 38.9665 252.25 38V20C252.25 19.0335 253.034 18.25 254 18.25Z"
                    fill="white"
                />
                <path
                    d="M254 18.25H280C280.966 18.25 281.75 19.0335 281.75 20V38C281.75 38.9665 280.966 39.75 280 39.75H254C253.034 39.75 252.25 38.9665 252.25 38V20C252.25 19.0335 253.034 18.25 254 18.25Z"
                    stroke="#DFDFFF"
                    stroke-width="0.5"
                />
                <mask
                    id="mask1_251_3065"
                    style="mask-type:alpha"
                    maskUnits="userSpaceOnUse"
                    x="18"
                    y="55"
                    width="20"
                    height="20"
                >
                    <rect x="18" y="55" width="20" height="20" fill="#D9D9D9" />
                </mask>
                <g mask="url(#mask1_251_3065)">
                    <path
                        d="M21.5897 71.25C21.1687 71.25 20.8124 71.1042 20.5208 70.8125C20.2291 70.5208 20.0833 70.1645 20.0833 69.7435V60.2565C20.0833 59.8355 20.2291 59.4792 20.5208 59.1875C20.8124 58.8958 21.1687 58.75 21.5897 58.75H26.1649L27.8316 60.4167H34.4101C34.8311 60.4167 35.1874 60.5625 35.4791 60.8542C35.7708 61.1458 35.9166 61.5022 35.9166 61.9231V63.8077C35.9166 64.063 35.8014 64.2476 35.5712 64.3615C35.341 64.4752 35.1164 64.4589 34.8974 64.3125C34.4849 64.0839 34.049 63.909 33.5897 63.7877C33.1303 63.6665 32.6569 63.6058 32.1697 63.6058C30.6228 63.6058 29.3073 64.1478 28.2235 65.2317C27.1396 66.3154 26.5976 67.6308 26.5976 69.1779C26.5976 69.3799 26.6062 69.581 26.6233 69.7813C26.6403 69.9815 26.6756 70.1784 26.7291 70.3719C26.7826 70.593 26.7449 70.7946 26.6162 70.9767C26.4874 71.1589 26.3125 71.25 26.0914 71.25H21.5897ZM29.5112 71.8221C28.7814 71.0924 28.4166 70.2072 28.4166 69.1667C28.4166 68.1261 28.7814 67.241 29.5112 66.5113C30.2409 65.7815 31.126 65.4167 32.1666 65.4167C33.2071 65.4167 34.0923 65.7815 34.822 66.5113C35.5517 67.241 35.9166 68.1261 35.9166 69.1667C35.9166 70.2072 35.5517 71.0924 34.822 71.8221C34.0923 72.5518 33.2071 72.9167 32.1666 72.9167C31.126 72.9167 30.2409 72.5518 29.5112 71.8221ZM32.4262 71.3654C32.4988 71.2928 32.5351 71.2063 32.5351 71.1058V68.8942C32.5351 68.7938 32.4988 68.7072 32.4262 68.6346C32.3535 68.5619 32.267 68.5256 32.1666 68.5256C32.0662 68.5256 31.9796 68.5619 31.907 68.6346C31.8344 68.7072 31.798 68.7938 31.798 68.8942V71.1058C31.798 71.2063 31.8344 71.2928 31.907 71.3654C31.9796 71.4381 32.0662 71.4744 32.1666 71.4744C32.267 71.4744 32.3535 71.4381 32.4262 71.3654ZM32.4583 67.5673C32.5416 67.484 32.5833 67.3867 32.5833 67.2756C32.5833 67.1645 32.5416 67.0673 32.4583 66.984C32.3749 66.9006 32.2777 66.859 32.1666 66.859C32.0555 66.859 31.9583 66.9006 31.8749 66.984C31.7916 67.0673 31.7499 67.1645 31.7499 67.2756C31.7499 67.3867 31.7916 67.484 31.8749 67.5673C31.9583 67.6506 32.0555 67.6923 32.1666 67.6923C32.2777 67.6923 32.3749 67.6506 32.4583 67.5673Z"
                        fill="#323152"
                        fill-opacity="0.25"
                    />
                </g>
                <path
                    d="M42 65C42 61.6863 44.6863 59 48 59H156C159.314 59 162 61.6863 162 65C162 68.3137 159.314 71 156 71H48C44.6863 71 42 68.3137 42 65Z"
                    fill="#323152"
                    fill-opacity="0.25"
                />
                <path
                    d="M254 54.25H280C280.966 54.25 281.75 55.0335 281.75 56V74C281.75 74.9665 280.966 75.75 280 75.75H254C253.034 75.75 252.25 74.9665 252.25 74V56C252.25 55.0335 253.034 54.25 254 54.25Z"
                    fill="#F9F9FF"
                />
                <path
                    d="M254 54.25H280C280.966 54.25 281.75 55.0335 281.75 56V74C281.75 74.9665 280.966 75.75 280 75.75H254C253.034 75.75 252.25 74.9665 252.25 74V56C252.25 55.0335 253.034 54.25 254 54.25Z"
                    stroke="#DFDFFF"
                    stroke-width="0.5"
                />
                <path d="M14 90H286" stroke="#DFDFFF" stroke-width="0.5" />
                <rect
                    x="14.25"
                    y="100.25"
                    width="271.5"
                    height="27.5"
                    rx="3.75"
                    fill="#F9F9FF"
                />
                <rect
                    x="14.25"
                    y="100.25"
                    width="271.5"
                    height="27.5"
                    rx="3.75"
                    stroke="#DFDFFF"
                    stroke-width="0.5"
                />
                <mask
                    id="mask2_251_3065"
                    style="mask-type:alpha"
                    maskUnits="userSpaceOnUse"
                    x="18"
                    y="104"
                    width="20"
                    height="20"
                >
                    <rect
                        x="18"
                        y="104"
                        width="20"
                        height="20"
                        fill="#D9D9D9"
                    />
                </mask>
                <g mask="url(#mask2_251_3065)">
                    <path
                        d="M25.9327 117.013C24.5097 117.013 23.3045 116.519 22.3173 115.532C21.3302 114.545 20.8367 113.34 20.8367 111.917C20.8367 110.494 21.3302 109.289 22.3173 108.301C23.3045 107.314 24.5097 106.821 25.9327 106.821C27.3558 106.821 28.5609 107.314 29.5481 108.301C30.5352 109.289 31.0288 110.494 31.0288 111.917C31.0288 112.512 30.9289 113.08 30.7292 113.622C30.5293 114.164 30.2627 114.635 29.9294 115.035L34.7244 119.83C34.8398 119.946 34.8988 120.091 34.9015 120.265C34.9041 120.44 34.8451 120.588 34.7244 120.708C34.6037 120.829 34.4573 120.889 34.2852 120.889C34.1133 120.889 33.9669 120.829 33.8463 120.708L29.0513 115.913C28.6346 116.257 28.1554 116.527 27.6138 116.721C27.0721 116.916 26.5117 117.013 25.9327 117.013ZM25.9327 115.763C27.0065 115.763 27.9159 115.39 28.661 114.645C29.4063 113.9 29.779 112.99 29.779 111.917C29.779 110.843 29.4063 109.934 28.661 109.188C27.9159 108.443 27.0065 108.07 25.9327 108.07C24.859 108.07 23.9495 108.443 23.2044 109.188C22.4591 109.934 22.0865 110.843 22.0865 111.917C22.0865 112.99 22.4591 113.9 23.2044 114.645C23.9495 115.39 24.859 115.763 25.9327 115.763Z"
                        fill="#323152"
                        fill-opacity="0.25"
                    />
                </g>
                <path
                    d="M42 114C42 110.686 44.6863 108 48 108H99C102.314 108 105 110.686 105 114C105 117.314 102.314 120 99 120H48C44.6863 120 42 117.314 42 114Z"
                    fill="#323152"
                    fill-opacity="0.25"
                />
                <path d="M14 138H286" stroke="#DFDFFF" stroke-width="0.5" />
                <rect
                    x="14.25"
                    y="148.25"
                    width="271.5"
                    height="29.5"
                    rx="3.75"
                    fill="#F9F9FF"
                />
                <rect
                    x="14.25"
                    y="148.25"
                    width="271.5"
                    height="29.5"
                    rx="3.75"
                    stroke="#DFDFFF"
                    stroke-width="0.5"
                />
                <g clip-path="url(#clip1_251_3065)">
                    <path
                        d="M25.0677 156.002C25.3208 156.01 25.5301 156.105 25.6862 156.284C25.7382 156.344 25.7722 156.417 25.7994 156.491L26.1771 157.521C26.2544 157.681 26.3707 157.831 26.4763 157.94C26.6107 158.078 26.8139 158.155 27.0928 158.155H34.9999C35.5522 158.155 36 158.603 35.9999 159.156L35.9989 167.848C35.9845 168.373 35.8389 168.706 35.5531 169.001C35.2517 169.312 34.8155 169.463 34.2677 169.463H21.7323C21.1851 169.463 20.7488 169.312 20.4475 169.001C20.1461 168.69 20 168.239 20 167.674V157.002C20 156.449 20.4478 156.002 21.0001 156.002L25.0677 156.002Z"
                        fill="#6095ED"
                    />
                    <path
                        d="M25.0677 156.001C25.3208 156.009 25.5301 156.103 25.6862 156.283C25.7382 156.342 25.7722 156.415 25.7994 156.489L26.1771 157.519C26.2544 157.679 26.3707 157.829 26.4763 157.938C26.6107 158.077 26.8139 158.154 27.0928 158.154H34.9999C35.5522 158.154 35.9999 158.602 35.9999 159.154L35.9989 167.222C35.9845 167.747 35.8389 168.166 35.5531 168.461C35.2517 168.772 34.8155 168.923 34.2677 168.923H21.7323C21.1851 168.923 20.7488 168.772 20.4475 168.461C20.1461 168.15 20 167.699 20 167.134V157C20 156.448 20.4478 156 21.0001 156L25.0677 156.001Z"
                        fill="#A0C4FF"
                    />
                </g>
                <path
                    d="M42 163C42 159.686 44.6863 157 48 157H95C98.3137 157 101 159.686 101 163C101 166.314 98.3137 169 95 169H48C44.6863 169 42 166.314 42 163Z"
                    fill="#ADACFF"
                />
                <path
                    d="M247 152.25H280C280.966 152.25 281.75 153.034 281.75 154V172C281.75 172.966 280.966 173.75 280 173.75H247C246.034 173.75 245.25 172.966 245.25 172V154C245.25 153.034 246.034 152.25 247 152.25Z"
                    fill="white"
                />
                <path
                    d="M247 152.25H280C280.966 152.25 281.75 153.034 281.75 154V172C281.75 172.966 280.966 173.75 280 173.75H247C246.034 173.75 245.25 172.966 245.25 172V154C245.25 153.034 246.034 152.25 247 152.25Z"
                    stroke="#DFDFFF"
                    stroke-width="0.5"
                />
                <g clip-path="url(#clip2_251_3065)">
                    <path
                        d="M25.0677 192.002C25.3208 192.01 25.5301 192.105 25.6862 192.284C25.7382 192.344 25.7722 192.417 25.7994 192.491L26.1771 193.521C26.2544 193.681 26.3707 193.831 26.4763 193.94C26.6107 194.078 26.8139 194.155 27.0928 194.155H34.9999C35.5522 194.155 36 194.603 35.9999 195.156L35.9989 203.848C35.9845 204.373 35.8389 204.706 35.5531 205.001C35.2517 205.312 34.8155 205.463 34.2677 205.463H21.7323C21.1851 205.463 20.7488 205.312 20.4475 205.001C20.1461 204.69 20 204.239 20 203.674V193.002C20 192.449 20.4478 192.002 21.0001 192.002L25.0677 192.002Z"
                        fill="#6095ED"
                    />
                    <path
                        d="M25.0677 192.001C25.3208 192.009 25.5301 192.103 25.6862 192.283C25.7382 192.342 25.7722 192.415 25.7994 192.489L26.1771 193.519C26.2544 193.679 26.3707 193.829 26.4763 193.938C26.6107 194.077 26.8139 194.154 27.0928 194.154H34.9999C35.5522 194.154 35.9999 194.602 35.9999 195.154L35.9989 203.222C35.9845 203.747 35.8389 204.166 35.5531 204.461C35.2517 204.772 34.8155 204.923 34.2677 204.923H21.7323C21.1851 204.923 20.7488 204.772 20.4475 204.461C20.1461 204.15 20 203.699 20 203.134V193C20 192.448 20.4478 192 21.0001 192L25.0677 192.001Z"
                        fill="#A0C4FF"
                    />
                </g>
                <path
                    d="M42 199C42 195.686 44.6863 193 48 193H156C159.314 193 162 195.686 162 199C162 202.314 159.314 205 156 205H48C44.6863 205 42 202.314 42 199Z"
                    fill="#323152"
                    fill-opacity="0.25"
                />
                <path
                    d="M246 188.25H280C280.966 188.25 281.75 189.034 281.75 190V208C281.75 208.966 280.966 209.75 280 209.75H246C245.034 209.75 244.25 208.966 244.25 208V190C244.25 189.034 245.034 188.25 246 188.25Z"
                    fill="#F9F9FF"
                />
                <path
                    d="M246 188.25H280C280.966 188.25 281.75 189.034 281.75 190V208C281.75 208.966 280.966 209.75 280 209.75H246C245.034 209.75 244.25 208.966 244.25 208V190C244.25 189.034 245.034 188.25 246 188.25Z"
                    stroke="#DFDFFF"
                    stroke-width="0.5"
                />
            </g>
            <defs>
                <clipPath id="clip0_251_3065">
                    <rect width="300" height="220" fill="white" />
                </clipPath>
                <clipPath id="clip1_251_3065">
                    <rect
                        width="16"
                        height="14"
                        fill="white"
                        transform="translate(20 156)"
                    />
                </clipPath>
                <clipPath id="clip2_251_3065">
                    <rect
                        width="16"
                        height="14"
                        fill="white"
                        transform="translate(20 192)"
                    />
                </clipPath>
            </defs>
        </svg>
