<svg
            width="105"
            height="100"
            viewBox="0 0 105 100"
            fill="none"
            xmlns="http://www.w3.org/2000/svg"
        >
            <g clip-path="url(#clip0_473_461)">
                <path
                    opacity="0.25"
                    d="M94.1124 77.006C93.426 77.738 92.5956 78.4016 91.5912 78.9716L90.9804 83.9024C90.7488 85.7768 89.1576 87.1832 87.2688 87.1832H15.9816C14.0268 87.1832 12.4032 85.6772 12.2532 83.7284L11.736 77H11.1048C8.0376 77 5.262 78.2432 3.252 80.252C1.2432 82.262 0 85.0388 0 88.1048C0 94.2368 4.9716 99.2084 11.1048 99.2084H93.8016C96.8688 99.2084 99.6444 97.9652 101.654 95.9564C103.663 93.9464 104.906 91.1708 104.906 88.1048C104.906 82.076 100.103 77.1692 94.1136 77.0048L94.1124 77.006Z"
                    fill="#2271B1"
                />
                <path
                    opacity="0.5"
                    d="M33.6087 77.6181C33.6087 78.5097 32.8875 79.2321 31.9959 79.2321H20.7855C19.9443 79.2321 19.2435 78.5853 19.1775 77.7465L18.7695 72.6345C18.6963 71.6973 19.4367 70.8933 20.3775 70.8933H31.9947C32.8863 70.8933 33.6075 71.6157 33.6075 72.5073V77.6181H33.6087ZM43.9371 65.3721C43.9371 66.2625 43.2159 66.9849 42.3243 66.9849H19.8999C19.0587 66.9849 18.3603 66.3393 18.2919 65.4993L17.8863 60.3885C17.8107 59.4489 18.5523 58.6473 19.4931 58.6473H42.3255C43.2171 58.6473 43.9383 59.3697 43.9383 60.2601V65.3721H43.9371ZM91.4967 42.1965H70.8987C70.2195 42.1965 69.5751 42.0129 69.0171 41.6877C68.1699 41.1969 67.5255 40.3761 67.2723 39.3765L64.1319 27.0153C63.7095 25.3569 62.2179 24.1953 60.5067 24.1953H26.2575C27.1971 26.5749 25.2783 30.4377 20.8803 31.2213C20.3115 31.3221 19.7247 31.3389 19.1451 31.2837C17.7003 31.1445 14.9115 30.5985 13.7487 28.4493C12.9531 26.9769 13.0839 25.4313 13.7163 24.1953H11.2371C9.05672 24.1953 7.33952 26.0505 7.50632 28.2237L11.7999 84.0417C11.9499 85.9905 13.5735 87.4965 15.5283 87.4965H86.8143C88.7031 87.4965 90.2943 86.0889 90.5259 84.2157L91.1367 79.2849C89.2887 80.3337 86.8599 81.0669 83.7015 81.3369C63.0063 83.1069 56.5887 63.1869 58.4691 57.4329C60.3507 51.6777 67.3227 54.2241 71.4171 58.4301C75.5115 62.6349 81.9051 69.8901 86.8227 69.2997C91.7427 68.7105 92.9163 64.8849 92.9163 64.8849L93.7791 57.9201L95.2047 46.4013C95.4807 44.1693 93.7407 42.2013 91.4931 42.2013L91.4967 42.1965Z"
                    fill="#2271B1"
                />
                <g opacity="0.35">
                    <path
                        d="M33.6086 77.6178C33.6086 78.5094 32.8874 79.2318 31.9958 79.2318H20.7854C19.9442 79.2318 19.2434 78.585 19.1774 77.7462L18.7694 72.6342C18.6962 71.697 19.4366 70.893 20.3774 70.893H31.9946C32.8862 70.893 33.6074 71.6154 33.6074 72.507V77.6178H33.6086ZM43.937 65.3718C43.937 66.2622 43.2158 66.9846 42.3242 66.9846H19.8998C19.0586 66.9846 18.3602 66.339 18.2918 65.499L17.8862 60.3882C17.8106 59.4486 18.5522 58.647 19.493 58.647H42.3254C43.217 58.647 43.9382 59.3694 43.9382 60.2598V65.3718H43.937Z"
                        fill="#2271B1"
                    />
                </g>
                <path
                    d="M31.9958 79.4718H20.7854C19.8254 79.4718 19.0142 78.7218 18.9386 77.7654L18.5306 72.6534C18.4898 72.1386 18.6674 71.6274 19.0178 71.2482C19.367 70.8702 19.8626 70.653 20.3774 70.653H31.9946C33.0158 70.653 33.8474 71.4846 33.8474 72.507V77.6178C33.8474 78.6402 33.017 79.4718 31.9946 79.4718H31.9958ZM20.3786 71.1342C19.9922 71.1342 19.6346 71.2914 19.3706 71.5746C19.1078 71.859 18.9794 72.2298 19.0094 72.6162L19.4174 77.727C19.4738 78.4362 20.075 78.9918 20.7866 78.9918H31.997C32.7542 78.9918 33.3698 78.375 33.3698 77.6178V72.507C33.3698 71.7498 32.7542 71.133 31.997 71.133H20.3798L20.3786 71.1342ZM42.3242 67.2246H19.8998C18.941 67.2246 18.1298 66.4758 18.053 65.5182L17.6474 60.4074C17.6066 59.8938 17.783 59.3814 18.1322 59.0034C18.4814 58.6254 18.977 58.4082 19.493 58.4082H42.3254C43.3466 58.4082 44.1782 59.2386 44.1782 60.261V65.373C44.1782 66.3942 43.3478 67.2258 42.3254 67.2258L42.3242 67.2246ZM19.4918 58.8882C19.1042 58.8882 18.7466 59.0454 18.4838 59.3298C18.221 59.6142 18.0938 59.9838 18.1238 60.3702L18.5294 65.481C18.587 66.1902 19.1882 66.7458 19.8986 66.7458H42.323C43.0802 66.7458 43.6958 66.1302 43.6958 65.373V60.261C43.6958 59.5038 43.0802 58.8882 42.323 58.8882H19.4906H19.4918Z"
                    fill="#2271B1"
                />
                <path
                    d="M86.8156 87.7351H15.5296C13.4632 87.7351 11.7208 86.1199 11.5612 84.0595L7.2676 28.2415C7.1824 27.1399 7.564 26.0419 8.3152 25.2319C9.0664 24.4207 10.1308 23.9551 11.2372 23.9551H14.1088L13.93 24.3043C13.2652 25.6015 13.276 27.0703 13.9588 28.3339C15.0556 30.3619 17.6932 30.9019 19.1668 31.0435C19.7452 31.0987 20.3068 31.0783 20.8372 30.9835C22.9432 30.6091 24.6832 29.4403 25.612 27.7783C26.2732 26.5951 26.4304 25.2883 26.0344 24.2827L25.9048 23.9551H60.5068C62.3284 23.9551 63.9148 25.1887 64.3648 26.9563L67.5052 39.3175C67.7356 40.2235 68.3308 41.0119 69.1384 41.4811C69.6736 41.7931 70.282 41.9575 70.8988 41.9575H91.4968C92.6368 41.9575 93.724 42.4471 94.4788 43.3015C95.2336 44.1559 95.5864 45.2947 95.4472 46.4275L93.1564 64.9327L93.1504 64.9531C93.1384 64.9927 91.8724 68.9347 86.8552 69.5359C82.2796 70.0831 76.606 64.1719 72.4624 59.8543C72.04 59.4139 71.6332 58.9915 71.248 58.5955C68.2768 55.5427 64.3708 53.8363 61.75 54.4447C60.2788 54.7867 59.2516 55.8163 58.6996 57.5059C57.7876 60.2959 58.9312 67.2007 63.4528 72.9067C66.8116 77.1451 73.048 82.0075 83.6824 81.0967C86.6332 80.8447 89.1016 80.1643 91.0192 79.0759L91.4344 78.8407L90.7648 84.2455C90.5188 86.2363 88.8208 87.7375 86.8144 87.7375L86.8156 87.7351ZM11.2372 24.4339C10.2508 24.4339 9.3376 24.8323 8.6668 25.5559C7.9972 26.2795 7.6696 27.2191 7.7452 28.2031L12.0388 84.0211C12.178 85.8343 13.7116 87.2539 15.5284 87.2539H86.8144C88.5784 87.2539 90.0724 85.9339 90.2884 84.1831L90.8428 79.7143C88.9288 80.7067 86.5372 81.3307 83.7244 81.5719C82.8304 81.6487 81.9652 81.6847 81.1312 81.6847C71.8444 81.6847 66.226 77.1751 63.0772 73.2019C60.4564 69.8947 59.1892 66.5467 58.588 64.3207C57.8452 61.5727 57.7168 58.9675 58.2448 57.3535C58.8448 55.5187 60.0196 54.3511 61.6432 53.9743C64.8832 53.2219 69.0724 55.6675 71.5936 58.2583C71.98 58.6543 72.3868 59.0779 72.8104 59.5195C76.8844 63.7639 82.4632 69.5755 86.7988 69.0559C91.3384 68.5123 92.5912 65.1043 92.686 64.8259L94.972 46.3639C95.0956 45.3679 94.7848 44.3659 94.1212 43.6147C93.4576 42.8635 92.5012 42.4327 91.4992 42.4327H70.9012C70.1992 42.4327 69.5068 42.2455 68.8996 41.8915C67.9816 41.3587 67.3048 40.4623 67.042 39.4315L63.9016 27.0703C63.5068 25.5163 62.1112 24.4315 60.5092 24.4315H26.5936C26.896 25.5139 26.6956 26.8243 26.0344 28.0099C25.036 29.7979 23.1736 31.0531 20.9248 31.4539C20.3512 31.5559 19.7464 31.5775 19.1248 31.5187C17.5552 31.3675 14.7436 30.7831 13.54 28.5595C12.8416 27.2671 12.7744 25.7827 13.3432 24.4315H11.2408L11.2372 24.4339Z"
                    fill="#2271B1"
                />
                <path
                    opacity="0.35"
                    d="M69.0168 41.6877C68.1696 41.1969 67.5252 40.3761 67.272 39.3765L64.1316 27.0153C63.7092 25.3569 62.2176 24.1953 60.5064 24.1953H26.418C27.252 19.7673 28.626 15.3573 30.6588 11.8005C30.6588 11.8005 29.9208 1.57047 32.676 2.01327C35.43 2.45487 37.5936 6.89967 37.5936 6.89967C37.5936 6.89967 41.6256 4.57047 47.1348 5.25927C52.644 5.94687 54.7584 6.89967 54.7584 6.89967C54.7584 6.89967 57.414 0.362066 59.8728 1.99887C62.3316 3.63567 62.0376 11.5545 62.0376 11.5545C62.0376 11.5545 69.5424 29.7993 69.018 41.6889L69.0168 41.6877Z"
                    fill="#2271B1"
                />
                <path
                    d="M69.2391 42.0942L68.8959 41.895C67.9779 41.3622 67.3011 40.4658 67.0383 39.435L63.8979 27.0738C63.5031 25.5198 62.1075 24.435 60.5055 24.435H26.1279L26.1819 24.1506C27.0951 19.3026 28.5579 15.015 30.4143 11.7438C30.3567 10.8858 29.9319 3.6894 31.6671 2.0994C31.9707 1.821 32.3223 1.713 32.7147 1.7754C35.2275 2.1786 37.2075 5.6418 37.6971 6.5706C38.6247 6.0918 42.3039 4.4118 47.1663 5.0202C51.7167 5.5878 53.9523 6.3294 54.6315 6.5874C55.0347 5.6562 56.6643 2.1498 58.5243 1.5762C59.0463 1.4154 59.5455 1.4898 60.0075 1.797C62.4699 3.4362 62.3043 10.7562 62.2803 11.5098C62.7075 12.5646 69.7659 30.1914 69.2583 41.697L69.2403 42.093L69.2391 42.0942ZM26.7075 23.9538H60.5055C62.3271 23.9538 63.9135 25.1874 64.3635 26.955L67.5039 39.3162C67.7007 40.0878 68.1615 40.7742 68.7915 41.2506C69.1143 29.5422 61.8879 11.8242 61.8147 11.6442L61.7943 11.5962L61.7967 11.5446C61.7991 11.4666 62.0583 3.741 59.7387 2.1978C59.3979 1.971 59.0463 1.9182 58.6623 2.0358C56.7747 2.6166 54.9963 6.945 54.9795 6.9894L54.8859 7.2198L54.6591 7.1178C54.6387 7.1082 52.4979 6.171 47.1039 5.4978C41.7459 4.827 37.7523 7.0842 37.7127 7.107L37.4895 7.2354L37.3767 7.0038C37.3551 6.9606 35.2347 2.667 32.6367 2.2494C32.3943 2.211 32.1831 2.277 31.9899 2.4534C30.6315 3.6978 30.7407 9.609 30.8967 11.7822L30.9015 11.8554L30.8655 11.919C29.0547 15.0882 27.6183 19.245 26.7063 23.955L26.7075 23.9538Z"
                    fill="#2271B1"
                />
                <path
                    opacity="0.35"
                    d="M20.8792 31.2201C20.3104 31.3209 19.7236 31.3377 19.144 31.2825C17.6992 31.1433 14.9104 30.5973 13.7476 28.4481C12.952 26.9757 13.0828 25.4301 13.7152 24.1941C14.3584 22.9413 15.5164 22.0077 16.7536 21.7941C19.2088 21.3705 24.4048 21.2541 25.984 23.6697C26.0908 23.8341 26.182 24.0105 26.2552 24.1941C27.1948 26.5737 25.276 30.4365 20.878 31.2201H20.8792Z"
                    fill="#2271B1"
                />
                <path
                    d="M19.7954 31.5538C19.5734 31.5538 19.349 31.543 19.121 31.5214C17.5514 31.3702 14.7398 30.7858 13.5362 28.5622C12.7766 27.157 12.7634 25.525 13.5014 24.085C14.1866 22.7506 15.4166 21.7822 16.7126 21.5578C18.7574 21.205 24.443 20.8738 26.1854 23.5378C26.3006 23.7154 26.399 23.905 26.4794 24.1042C26.9294 25.2442 26.7614 26.7034 26.0306 28.0114C25.0322 29.7994 23.1698 31.0546 20.921 31.4554C20.5574 31.5202 20.1806 31.5526 19.7954 31.5526V31.5538ZM19.703 21.7954C18.641 21.7954 17.6198 21.889 16.7942 22.0306C15.6446 22.2298 14.5466 23.101 13.9286 24.3034C13.2638 25.6006 13.2746 27.0694 13.9586 28.333C15.0554 30.361 17.693 30.901 19.1666 31.0426C19.745 31.0978 20.3066 31.0774 20.837 30.9826C22.943 30.6082 24.683 29.4394 25.6118 27.7774C26.273 26.5942 26.4302 25.2874 26.0342 24.2818C25.967 24.1126 25.8818 23.9506 25.7846 23.7994C24.7946 22.285 22.1426 21.7942 19.7042 21.7942L19.703 21.7954Z"
                    fill="#2271B1"
                />
                <path
                    d="M18.0204 31.3578C17.904 31.3578 17.802 31.2726 17.784 31.1539L17.0664 26.4703C17.046 26.3395 17.136 26.2171 17.2668 26.1967C17.3976 26.1775 17.52 26.2662 17.5404 26.397L18.258 31.0806C18.2784 31.2114 18.1884 31.3338 18.0576 31.3542C18.0456 31.3566 18.0336 31.3567 18.0204 31.3567V31.3578ZM21.4632 31.3338C21.3348 31.3338 21.228 31.2318 21.2232 31.1034L21.048 26.4439C21.0432 26.3119 21.1464 26.2002 21.2784 26.1954C21.408 26.1906 21.522 26.2938 21.5268 26.4258L21.702 31.0854C21.7068 31.2174 21.6036 31.3291 21.4716 31.3338C21.468 31.3338 21.4656 31.3338 21.462 31.3338H21.4632ZM24.168 30.039C24.0468 30.039 23.9424 29.9466 23.9292 29.823C23.8176 28.7334 23.556 26.1858 23.556 26.0754C23.556 25.9434 23.664 25.8354 23.796 25.8354C23.928 25.8354 24.0336 25.941 24.036 26.0706C24.0432 26.211 24.2604 28.3602 24.4068 29.7738C24.42 29.9058 24.324 30.0235 24.1932 30.0367C24.1848 30.0367 24.1764 30.0378 24.168 30.0378V30.039Z"
                    fill="#2271B1"
                />
                <path
                    d="M39.24 20.0637C40.1228 20.0637 40.8384 19.2486 40.8384 18.2432C40.8384 17.2379 40.1228 16.4229 39.24 16.4229C38.3572 16.4229 37.6416 17.2379 37.6416 18.2432C37.6416 19.2486 38.3572 20.0637 39.24 20.0637Z"
                    fill="#2271B1"
                />
                <path
                    d="M52.6453 20.0637C53.528 20.0637 54.2437 19.2486 54.2437 18.2432C54.2437 17.2379 53.528 16.4229 52.6453 16.4229C51.7625 16.4229 51.0469 17.2379 51.0469 18.2432C51.0469 19.2486 51.7625 20.0637 52.6453 20.0637Z"
                    fill="#2271B1"
                />
                <path
                    d="M32.7723 10.8162C32.7723 10.8162 32.4279 5.15936 33.4119 5.79896C34.3959 6.43856 35.8215 7.91336 35.8215 7.91336L32.7723 10.815V10.8162ZM56.2827 8.28176C56.2827 8.28176 59.0859 4.96256 59.4303 5.35616C59.7747 5.74976 59.7255 10.3242 59.7255 10.3242L56.2827 8.28296V8.28176Z"
                    fill="#2271B1"
                />
                <path
                    opacity="0.35"
                    d="M91.1391 79.2823C89.2911 80.3311 86.8623 81.0643 83.7039 81.3343C63.0087 83.1043 56.5911 63.1843 58.4715 57.4303C60.3531 51.6751 67.3251 54.2215 71.4195 58.4275C75.5139 62.6323 81.9075 69.8875 86.8251 69.2971C91.7451 68.7079 92.9187 64.8823 92.9187 64.8823L93.7815 57.9175C93.7815 57.9175 101.404 73.4623 91.1379 79.2847L91.1391 79.2823Z"
                    fill="#2271B1"
                />
                <path
                    d="M81.1316 81.686C71.8448 81.686 66.2264 77.1764 63.0776 73.2032C60.4568 69.896 59.1896 66.548 58.5884 64.322C57.8456 61.574 57.7172 58.9688 58.2452 57.3548C58.8452 55.52 60.02 54.3512 61.6436 53.9756C64.8836 53.2232 69.0728 55.6688 71.594 58.2596C71.9804 58.6556 72.3872 59.0792 72.8108 59.5208C76.8848 63.7652 82.4636 69.5768 86.7992 69.0572C91.3388 68.5136 92.5916 65.1056 92.6864 64.8272L93.6451 57.086L94.0004 57.8096C94.0196 57.8492 95.93 61.784 96.5504 66.3836C96.9164 69.098 96.77 71.5136 96.1136 73.5608C95.288 76.1372 93.6548 78.1328 91.2584 79.4912C89.2796 80.6144 86.7452 81.3152 83.726 81.5732C82.832 81.65 81.9668 81.686 81.1328 81.686H81.1316ZM62.8784 54.3212C62.4824 54.3212 62.1044 54.3608 61.7504 54.4436C60.2792 54.7856 59.252 55.8152 58.7 57.5048C57.788 60.2948 58.9316 67.1996 63.4532 72.9056C66.5336 76.7936 72.038 81.206 81.1376 81.206C81.9572 81.206 82.8044 81.17 83.684 81.0956C86.6348 80.8436 89.1032 80.1632 91.0208 79.0748C95.1824 76.7144 96.8828 72.47 96.0751 66.4592C95.6276 63.1328 94.4936 60.1568 93.9164 58.7996L93.1567 64.9328L93.1507 64.9532C93.1388 64.9928 91.8716 68.9348 86.8556 69.536C82.28 70.0856 76.6064 64.172 72.4628 59.8544C72.0404 59.414 71.6336 58.9916 71.2484 58.5956C68.678 55.9556 65.4104 54.3224 62.8784 54.3224V54.3212Z"
                    fill="#2271B1"
                />
                <path
                    opacity="0.5"
                    d="M78.6328 0.612967L87.736 1.93657C93.3328 2.75017 97.21 7.94737 96.3964 13.5442C95.5828 19.141 90.3856 23.0182 84.7888 22.2046L78.4828 21.2878L75.1384 24.0538C74.7364 24.3862 74.1316 24.0886 74.1496 23.5666L74.254 20.5654C69.4444 19.1494 66.2812 14.3782 67.024 9.27217C67.8376 3.67537 73.0348 -0.201835 78.6316 0.611765L78.6328 0.612967Z"
                    fill="#2271B1"
                />
                <path
                    d="M74.7565 24.4342C74.6293 24.4342 74.5021 24.4054 74.3809 24.3454C74.0785 24.1966 73.8985 23.8954 73.9093 23.5582L74.0077 20.7418C71.6869 20.0134 69.6853 18.4882 68.3557 16.4338C66.9793 14.305 66.4213 11.7502 66.7873 9.23861C67.1905 6.46781 68.6473 4.02101 70.8913 2.34701C73.1353 0.673011 75.8965 -0.0277883 78.6673 0.375412L87.7705 1.69901C90.5413 2.10221 92.9881 3.55901 94.6621 5.80301C96.3361 8.04701 97.0357 10.8082 96.6337 13.579C96.2305 16.3498 94.7737 18.7966 92.5297 20.4706C90.2857 22.1446 87.5245 22.8454 84.7537 22.4422L78.5533 21.541L75.2917 24.2398C75.1357 24.3694 74.9473 24.4354 74.7565 24.4354V24.4342ZM77.1373 0.743811C74.9977 0.743811 72.9241 1.42781 71.1781 2.73101C69.0373 4.32821 67.6465 6.66341 67.2625 9.30701C66.5509 14.1994 69.5857 18.9406 74.3221 20.335L74.5009 20.3878L74.3905 23.575C74.3857 23.7226 74.4613 23.8498 74.5933 23.9146C74.7253 23.9794 74.8729 23.9626 74.9869 23.869L78.4129 21.0346L84.8245 21.967C87.4669 22.351 90.1033 21.6838 92.2441 20.0866C94.3849 18.4894 95.7757 16.1542 96.1597 13.5106C96.5437 10.867 95.8765 8.23181 94.2793 6.09101C92.6821 3.95021 90.3469 2.55941 87.7033 2.17421L78.6001 0.850611C78.1117 0.779811 77.6245 0.74501 77.1397 0.74501L77.1373 0.743811Z"
                    fill="#2271B1"
                />
                <path
                    d="M77.5371 9.47161L77.1915 11.8476C76.9323 13.6332 77.1027 15.0528 77.7039 16.1064C78.3063 17.16 79.3191 17.79 80.7435 17.9976C82.1511 18.2028 83.2947 17.8944 84.1743 17.0748C85.0551 16.2552 85.6287 14.9808 85.8987 13.2504L86.2443 10.8744C86.5071 9.07081 86.3319 7.64762 85.7199 6.60602C85.1079 5.56322 84.0975 4.93921 82.6911 4.73401C81.2835 4.52881 80.1411 4.83602 79.2615 5.65322C78.3819 6.47042 77.8071 7.74362 77.5383 9.47282L77.5371 9.47161ZM80.1339 9.60721C80.2899 8.53681 80.5491 7.77721 80.9127 7.33201C81.2763 6.88561 81.7683 6.70922 82.3899 6.79922C83.0115 6.88922 83.4039 7.18322 83.6235 7.68962C83.8431 8.19602 83.8887 8.94482 83.7639 9.93602L83.3067 13.0776C83.1531 14.1312 82.8963 14.8932 82.5351 15.3636C82.1739 15.8328 81.6771 16.0224 81.0435 15.93C80.4171 15.8388 80.0007 15.528 79.7943 14.9964C79.5879 14.4648 79.5519 13.692 79.6875 12.678L80.1339 9.60602V9.60721Z"
                    fill="#2271B1"
                />
                <path
                    d="M15.9188 12.8286C14.8112 12.8286 13.91 11.9274 13.91 10.8198C13.91 9.71224 14.8112 8.81104 15.9188 8.81104C17.0264 8.81104 17.9276 9.71224 17.9276 10.8198C17.9276 11.9274 17.0264 12.8286 15.9188 12.8286ZM15.9188 9.28984C15.0752 9.28984 14.39 9.97624 14.39 10.8186C14.39 11.661 15.0764 12.3474 15.9188 12.3474C16.7612 12.3474 17.4476 11.661 17.4476 10.8186C17.4476 9.97624 16.7612 9.28984 15.9188 9.28984ZM82.772 32.4714C82.0544 32.4714 81.4712 31.8882 81.4712 31.1706C81.4712 30.453 82.0544 29.8698 82.772 29.8698C83.4896 29.8698 84.0728 30.453 84.0728 31.1706C84.0728 31.8882 83.4896 32.4714 82.772 32.4714ZM82.772 30.351C82.3196 30.351 81.9512 30.7194 81.9512 31.1718C81.9512 31.6242 82.3196 31.9926 82.772 31.9926C83.2244 31.9926 83.5928 31.6242 83.5928 31.1718C83.5928 30.7194 83.2244 30.351 82.772 30.351ZM5.50282 67.2246C4.66402 67.2246 3.98242 66.5418 3.98242 65.7042C3.98242 64.8666 4.66522 64.1838 5.50282 64.1838C6.34042 64.1838 7.02322 64.8666 7.02322 65.7042C7.02322 66.5418 6.34042 67.2246 5.50282 67.2246ZM5.50282 64.6626C4.92922 64.6626 4.46242 65.1294 4.46242 65.703C4.46242 66.2766 4.92922 66.7434 5.50282 66.7434C6.07642 66.7434 6.54322 66.2766 6.54322 65.703C6.54322 65.1294 6.07642 64.6626 5.50282 64.6626ZM45.3836 95.403C44.4536 95.403 43.6976 94.647 43.6976 93.717C43.6976 92.787 44.4536 92.031 45.3836 92.031C46.3136 92.031 47.0696 92.787 47.0696 93.717C47.0696 94.647 46.3136 95.403 45.3836 95.403ZM45.3836 92.511C44.7188 92.511 44.1776 93.0522 44.1776 93.717C44.1776 94.3818 44.7188 94.923 45.3836 94.923C46.0484 94.923 46.5896 94.3818 46.5896 93.717C46.5896 93.0522 46.0484 92.511 45.3836 92.511Z"
                    fill="#2271B1"
                />
            </g>
            <defs>
                <clipPath id="clip0_473_461">
                    <rect width="105" height="100" fill="white" />
                </clipPath>
            </defs>
        </svg>
