<svg
            width="16"
            height="13"
            viewBox="0 0 16 13"
            fill="none"
            xmlns="http://www.w3.org/2000/svg"
        >
            <path
                d="M1.50646 12.5C1.08549 12.5 0.729167 12.3542 0.4375 12.0625C0.145833 11.7708 0 11.4145 0 10.9935V1.50646C0 1.08549 0.145833 0.729167 0.4375 0.4375C0.729167 0.145833 1.08549 0 1.50646 0H5.45833C5.65917 0 5.85229 0.0390277 6.03771 0.117083C6.22299 0.195 6.38403 0.302361 6.52083 0.439167L7.74833 1.66667H14.3269C14.7478 1.66667 15.1042 1.8125 15.3958 2.10417C15.6875 2.39583 15.8333 2.75215 15.8333 3.17313V10.9935C15.8333 11.4145 15.6875 11.7708 15.3958 12.0625C15.1042 12.3542 14.7478 12.5 14.3269 12.5H1.50646Z"
                fill="currentColor"
            />
        </svg>
