<svg
            width="16"
            height="15"
            viewBox="0 0 16 15"
            fill="none"
            xmlns="http://www.w3.org/2000/svg"
        >
            <path
                d="M1.50646 12.5C1.08549 12.5 0.729167 12.3542 0.4375 12.0625C0.145833 11.7708 0 11.4145 0 10.9935V1.50646C0 1.08549 0.145833 0.729167 0.4375 0.4375C0.729167 0.145833 1.08549 0 1.50646 0H6.08167L7.74833 1.66667H14.3269C14.7478 1.66667 15.1042 1.8125 15.3958 2.10417C15.6875 2.39583 15.8333 2.75215 15.8333 3.17313V5.05771C15.8333 5.31299 15.7182 5.49757 15.4879 5.61146C15.2578 5.72521 15.0332 5.70889 14.8142 5.5625C14.4017 5.33389 13.9658 5.15896 13.5065 5.03771C13.047 4.91646 12.5737 4.85583 12.0865 4.85583C10.5395 4.85583 9.2241 5.39778 8.14021 6.48167C7.05632 7.56542 6.51438 8.88083 6.51438 10.4279C6.51438 10.6299 6.52292 10.831 6.54 11.0313C6.55708 11.2315 6.59236 11.4284 6.64583 11.6219C6.69931 11.843 6.66167 12.0446 6.53292 12.2267C6.40417 12.4089 6.22924 12.5 6.00813 12.5H1.50646ZM9.42792 13.0721C8.69819 12.3424 8.33333 11.4572 8.33333 10.4167C8.33333 9.37611 8.69819 8.49097 9.42792 7.76125C10.1576 7.03153 11.0428 6.66667 12.0833 6.66667C13.1239 6.66667 14.009 7.03153 14.7388 7.76125C15.4685 8.49097 15.8333 9.37611 15.8333 10.4167C15.8333 11.4572 15.4685 12.3424 14.7388 13.0721C14.009 13.8018 13.1239 14.1667 12.0833 14.1667C11.0428 14.1667 10.1576 13.8018 9.42792 13.0721ZM12.3429 12.6154C12.4156 12.5428 12.4519 12.4563 12.4519 12.3558V10.1442C12.4519 10.0438 12.4156 9.95722 12.3429 9.88458C12.2703 9.81194 12.1838 9.77563 12.0833 9.77563C11.9829 9.77563 11.8964 9.81194 11.8237 9.88458C11.7511 9.95722 11.7148 10.0438 11.7148 10.1442V12.3558C11.7148 12.4563 11.7511 12.5428 11.8237 12.6154C11.8964 12.6881 11.9829 12.7244 12.0833 12.7244C12.1838 12.7244 12.2703 12.6881 12.3429 12.6154ZM12.375 8.81729C12.4583 8.73396 12.5 8.63674 12.5 8.52563C12.5 8.41451 12.4583 8.31729 12.375 8.23396C12.2917 8.15063 12.1944 8.10896 12.0833 8.10896C11.9722 8.10896 11.875 8.15063 11.7917 8.23396C11.7083 8.31729 11.6667 8.41451 11.6667 8.52563C11.6667 8.63674 11.7083 8.73396 11.7917 8.81729C11.875 8.90063 11.9722 8.94229 12.0833 8.94229C12.1944 8.94229 12.2917 8.90063 12.375 8.81729Z"
                fill="currentColor"
            />
        </svg>
