<svg
width="100"
height="100"
viewBox="0 0 100 100"
fill="none"
xmlns="http://www.w3.org/2000/svg"
>
<path
d="M43.4818 6.3059C47.1162 2.78996 52.8842 2.78996 56.5185 6.3059L59.067 8.77137C61.1455 10.7819 64.0353 11.7209 66.8986 11.3159L70.4096 10.8193C75.4162 10.1111 80.0826 13.5014 80.9564 18.4822L81.5689 21.9747C82.0685 24.8229 83.8549 27.2812 86.4092 28.6365L89.5416 30.2984C94.0084 32.6685 95.7908 38.1541 93.5701 42.6973L92.0127 45.8828C90.7428 48.4809 90.7428 51.5191 92.0127 54.1172L93.5701 57.3027C95.7908 61.8457 94.0084 67.3316 89.5416 69.7016L86.4092 71.3637C83.8549 72.7188 82.0685 75.177 81.5689 78.0254L80.9564 81.518C80.0826 86.4984 75.4162 89.8891 70.4096 89.1809L66.8986 88.684C64.0353 88.2789 61.1455 89.218 59.067 91.2285L56.5185 93.6941C52.8842 97.2102 47.1162 97.2102 43.4818 93.6941L40.9334 91.2285C38.8549 89.218 35.9651 88.2789 33.1019 88.684L29.5909 89.1809C24.584 89.8891 19.9176 86.4984 19.0439 81.518L18.4313 78.0254C17.9317 75.177 16.1456 72.7188 13.5912 71.3637L10.4589 69.7016C5.99194 67.3316 4.20955 61.8457 6.43033 57.3027L7.98756 54.1172C9.25752 51.5191 9.25752 48.4809 7.98756 45.8828L6.43033 42.6973C4.20955 38.1541 5.99194 32.6685 10.4589 30.2984L13.5912 28.6365C16.1456 27.2812 17.9317 24.8229 18.4313 21.9747L19.0439 18.4822C19.9176 13.5014 24.584 10.1111 29.5909 10.8193L33.1019 11.3159C35.9651 11.7209 38.8549 10.7819 40.9334 8.77137L43.4818 6.3059Z"
fill="#1F6CFA"
/>
<path
d="M20.9635 44.8388C20.8961 45.2075 20.7605 45.5298 20.5567 45.8048C20.3538 46.0747 20.0848 46.272 19.7498 46.3962C19.4096 46.5192 19.0013 46.5372 18.5248 46.4501L15.1279 45.8294L15.2459 45.1841L18.6504 45.806C18.9988 45.8696 19.2935 45.8653 19.5344 45.7927C19.7762 45.7153 19.9671 45.5833 20.107 45.397C20.247 45.211 20.3412 44.9845 20.3899 44.7181C20.4395 44.4466 20.4314 44.2017 20.3654 43.9829C20.2994 43.7645 20.1666 43.5786 19.9669 43.4259C19.7671 43.2728 19.4931 43.1645 19.1447 43.1009L15.7401 42.4786L15.858 41.8333L19.255 42.454C19.7314 42.5407 20.107 42.702 20.3816 42.9376C20.6512 43.1724 20.8326 43.454 20.926 43.7837C21.0193 44.113 21.0318 44.4649 20.9635 44.8388ZM21.375 42.2149L16.1959 40.4591L16.7678 38.7722C16.9066 38.3628 17.0893 38.0508 17.3161 37.8362C17.5396 37.615 17.7857 37.4812 18.0543 37.4348C18.3247 37.3835 18.6054 37.4072 18.8964 37.5058C19.1776 37.6012 19.4123 37.7522 19.6007 37.959C19.7858 38.1593 19.9031 38.4135 19.9526 38.7218C20.0021 39.0301 19.9566 39.3915 19.8161 39.8056L19.4549 40.8712L21.5857 41.5935L21.375 42.2149ZM18.9296 40.6931L19.2883 39.6349C19.4287 39.2208 19.4378 38.8937 19.3155 38.6543C19.1932 38.4149 18.9816 38.2441 18.6807 38.1421C18.3601 38.0334 18.0834 38.0386 17.8505 38.1576C17.6128 38.275 17.4236 38.5409 17.2832 38.9552L16.9245 40.0134L18.9296 40.6931ZM23.8524 36.4355C23.6136 36.8867 23.3005 37.2277 22.9131 37.4587C22.5211 37.6873 22.0886 37.7973 21.6159 37.7887C21.1431 37.7801 20.6582 37.6442 20.161 37.3811C19.6684 37.1204 19.2834 36.7958 19.0058 36.4073C18.7306 36.0142 18.5798 35.5866 18.5532 35.1247C18.529 34.6582 18.6436 34.1855 18.897 33.7068C19.1845 33.1636 19.5557 32.7796 20.0105 32.5548C20.4608 32.3276 20.9452 32.2863 21.4637 32.4312L21.1092 33.101C20.7851 33.0119 20.4745 33.042 20.1775 33.1912C19.8805 33.3404 19.6309 33.6061 19.4287 33.9882C19.2411 34.3426 19.1572 34.696 19.177 35.0483C19.1946 35.3935 19.313 35.7155 19.5321 36.014C19.7512 36.3127 20.0656 36.5704 20.4753 36.7872C20.885 37.0041 21.2772 37.1203 21.652 37.136C22.0221 37.1492 22.3524 37.0706 22.6429 36.9003C22.9359 36.7254 23.1701 36.4722 23.3455 36.1407C23.6184 35.6251 23.6723 35.1558 23.5073 34.7326C23.3424 34.3094 23.0096 33.9417 22.5089 33.6296L21.7707 35.0244L21.315 34.7832L22.3675 32.7945L24.95 34.1613L24.6686 34.693L23.8489 34.3211C23.9767 34.5361 24.0672 34.7548 24.1203 34.9774C24.1712 35.1929 24.1776 35.4203 24.1395 35.6593C24.0967 35.896 24.001 36.1547 23.8524 36.4355ZM25.1967 33.7467L20.8255 30.4603L21.8866 29.049C22.1432 28.7076 22.4112 28.4725 22.6905 28.3437C22.9657 28.2117 23.2382 28.1657 23.5079 28.2056C23.7777 28.2455 24.0332 28.3562 24.2747 28.5378C24.5079 28.713 24.6815 28.9283 24.7958 29.1837C24.9132 29.4349 24.9473 29.7146 24.898 30.0229C24.8486 30.3312 24.6941 30.658 24.4343 31.0036L23.7864 31.8653L25.5911 33.2221L25.1967 33.7467ZM26.9338 31.4362L24.2563 30.9284L24.6976 30.3414L27.3986 30.818L26.9338 31.4362ZM23.3743 31.5554L24.0128 30.7062C24.2632 30.3731 24.3651 30.0686 24.3186 29.7925C24.2751 29.5122 24.1264 29.2767 23.8725 29.0857C23.6144 28.8917 23.3525 28.8153 23.0868 28.8567C22.8201 28.8907 22.5569 29.0805 22.2971 29.426L21.6633 30.269L23.3743 31.5554ZM27.4542 30.7028L25.0472 25.3946L25.5421 24.9062L30.8127 27.3881L30.3178 27.8765L25.8681 25.737L27.9435 30.2198L27.4542 30.7028ZM27.1225 29.0543L26.8828 28.5445L28.6454 26.8048L29.152 27.0512L27.1225 29.0543ZM31.0114 27.2255L27.833 22.7752L29.1427 21.8398C29.664 21.4675 30.1571 21.2529 30.6221 21.196C31.0883 21.1319 31.5215 21.2097 31.9217 21.4295C32.3231 21.642 32.6903 21.9814 33.0233 22.4476C33.3502 22.9054 33.5491 23.3586 33.6199 23.8072C33.6949 24.2528 33.6265 24.6858 33.4146 25.1059C33.2069 25.5231 32.8423 25.9178 32.3211 26.2901L31.0114 27.2255ZM31.2276 26.399L31.9905 25.8542C32.4228 25.5454 32.7162 25.2303 32.8706 24.9088C33.022 24.5831 33.0589 24.2495 32.9814 23.908C32.9009 23.5623 32.7305 23.2072 32.4702 22.8427C32.2038 22.4697 31.9202 22.189 31.6193 22.0007C31.3184 21.8124 30.9893 21.737 30.6321 21.7745C30.2749 21.812 29.8801 21.9852 29.4478 22.2939L28.6849 22.8388L31.2276 26.399ZM34.9906 24.4162L32.5039 19.5455L35.5168 18.0073L35.7619 18.4874L33.3335 19.7272L34.2003 21.425L36.42 20.2918L36.6615 20.765L34.4419 21.8982L35.33 23.6377L37.7584 22.3979L38.0035 22.878L34.9906 24.4162ZM42.2895 21.3621L41.2742 15.9883L41.9191 15.8666L45.5961 19.6325L44.7828 15.3258L45.4277 15.204L46.4426 20.5778L45.7977 20.6995L42.1207 16.9337L42.934 21.2403L42.2895 21.3621ZM49.4191 20.5512C48.8934 20.5597 48.4277 20.4499 48.023 20.222C47.6234 19.9888 47.3082 19.6631 47.0777 19.2449C46.852 18.8213 46.7348 18.3284 46.7258 17.766C46.7168 17.2087 46.8184 16.7174 47.0301 16.2921C47.2473 15.8615 47.552 15.5232 47.9438 15.2773C48.341 15.0313 48.8023 14.9042 49.3285 14.8957C49.8648 14.8871 50.3328 14.9994 50.7324 15.2326C51.132 15.4658 51.4445 15.7942 51.6703 16.2177C51.9012 16.636 52.0207 17.1237 52.0297 17.6809C52.0387 18.2433 51.9348 18.7398 51.7176 19.1704C51.5059 19.5958 51.2039 19.9314 50.8117 20.1773C50.4199 20.418 49.9555 20.5426 49.4191 20.5512ZM49.4098 19.9732C49.8059 19.9669 50.1504 19.8728 50.4445 19.6909C50.7437 19.5038 50.9715 19.2423 51.1273 18.9065C51.2887 18.5653 51.3656 18.1603 51.3578 17.6917C51.3504 17.2229 51.2605 16.8233 51.0887 16.4927C50.9219 16.1568 50.6859 15.9027 50.3813 15.7305C50.0813 15.5582 49.7336 15.4752 49.3379 15.4816C48.9473 15.4878 48.6023 15.5819 48.3031 15.7638C48.0094 15.9456 47.7816 16.2071 47.6203 16.5483C47.4645 16.8842 47.3898 17.2865 47.3977 17.7552C47.4051 18.2238 47.4922 18.6262 47.659 18.962C47.8312 19.2927 48.0668 19.5467 48.3668 19.7242C48.6715 19.8965 49.0191 19.9794 49.4098 19.9732ZM53.1637 20.6263L52.6695 14.9771L53.3613 15.1033L53.6805 19.9264L55.8363 15.5548L56.5586 15.6867L56.9981 20.5476L59.018 16.1354L59.7098 16.2616L57.2219 21.3667L56.484 21.2321L56.0125 16.5479L53.8863 20.7581L53.1637 20.6263ZM63.709 23.7447L66.0406 19.4014L64.602 18.629L64.857 18.1541L68.3125 20.0092L68.0574 20.4842L66.6188 19.7118L64.2871 24.0551L63.709 23.7447ZM67.6008 26.3895C67.1809 26.073 66.8809 25.7005 66.7016 25.272C66.5297 24.8425 66.4809 24.3919 66.5559 23.9201C66.6383 23.4474 66.8484 22.9863 67.1867 22.537C67.5223 22.0919 67.9039 21.7666 68.3324 21.5613C68.7684 21.3549 69.2164 21.2751 69.677 21.3218C70.1414 21.3717 70.5836 21.5549 71.0039 21.8714C71.4324 22.1942 71.7328 22.5703 71.9047 22.9998C72.0766 23.4294 72.1215 23.8805 72.0395 24.3532C71.9645 24.8249 71.7594 25.2834 71.4242 25.7285C71.0856 26.1778 70.6984 26.5057 70.2629 26.7121C69.834 26.9175 69.3898 26.9968 68.9293 26.95C68.4723 26.899 68.0293 26.7122 67.6008 26.3895ZM67.9488 25.9277C68.2648 26.1658 68.5949 26.3035 68.9383 26.3406C69.2895 26.3768 69.6297 26.3103 69.9594 26.1411C70.2961 25.971 70.6055 25.6987 70.8875 25.3243C71.1695 24.9499 71.3441 24.5794 71.4117 24.2129C71.4863 23.8453 71.4563 23.4999 71.3215 23.1767C71.191 22.8567 70.9676 22.5776 70.6512 22.3394C70.3395 22.1044 70.0094 21.9668 69.6617 21.9265C69.318 21.8893 68.9777 21.9558 68.641 22.126C68.3113 22.2951 68.0055 22.5669 67.7234 22.9413C67.4414 23.3157 67.2633 23.6867 67.1883 24.0542C67.1211 24.4208 67.1512 24.7662 67.2785 25.0904C67.4133 25.4136 67.6367 25.6927 67.9488 25.9277ZM72.8465 31.0917L77.2605 27.8633L79.2574 30.5937L78.8223 30.9119L77.2129 28.7112L75.6742 29.8365L77.1453 31.8481L76.7164 32.1617L75.2453 30.1501L73.6688 31.3031L75.2785 33.5039L74.8434 33.8221L72.8465 31.0917ZM75.0289 34.0567L78.2496 34.2227L79.8449 31.4662L80.1965 32.1198L78.9137 34.3357L81.4402 34.4315L81.7879 35.0783L78.5879 34.9012L76.9754 37.6758L76.6238 37.0222L77.9238 34.7882L75.3805 34.7104L75.0289 34.0567ZM77.15 38.0596L82.282 36.1708L82.8973 37.8425C83.0469 38.2481 83.1004 38.6057 83.059 38.9151C83.0242 39.2278 82.9168 39.4864 82.7371 39.6915C82.559 39.9013 82.3258 40.0591 82.0375 40.1653C81.7586 40.2677 81.4813 40.2978 81.2047 40.2552C80.9348 40.2157 80.684 40.0919 80.4516 39.8829C80.2195 39.6743 80.0277 39.3645 79.8766 38.9542L79.4883 37.8984L77.3766 38.6755L77.15 38.0596ZM80.0086 37.7068L80.3945 38.7553C80.5457 39.1657 80.7441 39.4259 80.9895 39.5353C81.2352 39.6446 81.507 39.6446 81.8055 39.5349C82.1231 39.4177 82.3352 39.2399 82.4414 39.001C82.5523 38.7603 82.5324 38.4346 82.3816 38.024L81.9957 36.9756L80.0086 37.7068ZM78.5367 41.9118L83.8773 40.7349L84.6055 44.0384L84.0789 44.1544L83.4922 41.4919L81.6305 41.902L82.1668 44.3356L81.6481 44.4501L81.1117 42.0161L79.2043 42.4364L79.791 45.0993L79.2649 45.2153L78.5367 41.9118ZM79.3609 45.7833L84.8133 45.3622L84.9492 47.1224C84.9824 47.5481 84.9363 47.9017 84.8121 48.1829C84.6926 48.4638 84.5184 48.6786 84.2895 48.8267C84.0609 48.9751 83.7957 49.0606 83.4945 49.0841C83.2039 49.1063 82.9313 49.0595 82.6766 48.9435C82.4227 48.8325 82.2121 48.645 82.0457 48.381C81.8789 48.1169 81.7789 47.7696 81.7457 47.3384L81.6625 46.2638L79.4113 46.4376L79.3609 45.7833ZM79.5836 48.6653L81.9289 47.2774L81.9855 48.0095L79.643 49.4364L79.5836 48.6653ZM82.1766 46.2239L82.2586 47.2833C82.2906 47.6985 82.4152 47.9946 82.6328 48.1712C82.8504 48.3528 83.1176 48.4313 83.4344 48.4071C83.7563 48.3821 84.0035 48.2665 84.1754 48.0599C84.3531 47.8579 84.4254 47.5415 84.3922 47.1106L84.3109 46.0591L82.1766 46.2239ZM79.6703 50.1895L85.1379 50.2962L85.125 50.952L79.6574 50.8458L79.6703 50.1895ZM79.6082 51.7767L85.0371 52.4349L84.6301 55.7931L84.0949 55.7282L84.423 53.0212L82.5305 52.7919L82.2309 55.2661L81.7031 55.202L82.0031 52.7282L80.0641 52.4931L79.7363 55.1997L79.2012 55.1349L79.6082 51.7767ZM79.109 55.67L84.3848 57.1102L84.2117 57.7435L79.2164 59.4005L83.4445 60.5544L83.2715 61.1876L77.9957 59.7474L78.1688 59.1142L83.1641 57.4571L78.9359 56.3032L79.109 55.67ZM76.7434 62.3856C76.9676 61.904 77.2688 61.5356 77.6461 61.2806C78.0258 61.0325 78.4512 60.9032 78.9215 60.8923C79.3965 60.8841 79.8891 60.9985 80.3988 61.236C80.909 61.4735 81.3109 61.7759 81.6055 62.1431C81.9047 62.5122 82.0789 62.9208 82.1285 63.3692C82.1809 63.8243 82.0949 64.2931 81.8703 64.7743C81.6066 65.3411 81.2574 65.7388 80.8234 65.9673C80.3895 66.1958 79.9035 66.2454 79.3664 66.1161L79.6734 65.4575C80.0156 65.5247 80.3324 65.4856 80.6242 65.3403C80.9211 65.197 81.1617 64.9267 81.3465 64.5302C81.5113 64.1763 81.5719 63.831 81.5274 63.4942C81.4879 63.1599 81.3477 62.8501 81.1066 62.5657C80.8707 62.2833 80.5402 62.0431 80.1152 61.845C79.6902 61.647 79.2914 61.5474 78.9188 61.5462C78.5504 61.547 78.2234 61.6388 77.9371 61.8216C77.6555 62.0063 77.4324 62.2759 77.2676 62.6298C77.0828 63.0263 77.0262 63.3821 77.0977 63.697C77.1738 64.0142 77.3457 64.281 77.6125 64.4974L77.3059 65.156C76.875 64.8345 76.6078 64.4341 76.5035 63.9548C76.3996 63.4751 76.4793 62.952 76.7434 62.3856ZM75.6606 64.87L80.2184 67.8919L78.3488 70.7114L77.8996 70.4134L79.4063 68.1411L77.8176 67.0876L76.4406 69.1646L75.9977 68.8712L77.375 66.7938L75.7469 65.7146L74.2402 67.9872L73.791 67.6892L75.6606 64.87ZM70.7613 71.1806L74.3426 75.3138L72.9961 76.4802C72.6695 76.7634 72.3539 76.9399 72.05 77.0106C71.7453 77.0884 71.4652 77.0794 71.2102 76.9837C70.9508 76.8915 70.7207 76.729 70.5195 76.4966C70.325 76.2724 70.1988 76.0235 70.141 75.7497C70.0824 75.4833 70.1098 75.2048 70.2227 74.9138C70.3359 74.6228 70.5578 74.3341 70.8887 74.0474L71.7387 73.311L70.2656 71.6103L70.7613 71.1806ZM72.102 73.7302L71.2578 74.4618C70.927 74.7481 70.7539 75.0255 70.7383 75.2938C70.7231 75.5626 70.8191 75.8165 71.0273 76.0567C71.2488 76.3126 71.4902 76.4481 71.7512 76.463C72.0156 76.4821 72.3133 76.3481 72.6441 76.0618L73.4883 75.3302L72.102 73.7302ZM67.6625 73.8282L70.6348 78.4185L69.1527 79.3782C68.7941 79.6103 68.4617 79.7388 68.1551 79.7634C67.8516 79.7927 67.5797 79.7423 67.3402 79.6118C67.1008 79.4813 66.8988 79.2896 66.7348 79.036C66.5762 78.7911 66.4871 78.529 66.468 78.2501C66.4441 77.9739 66.5082 77.6993 66.6609 77.4271C66.8133 77.1544 67.0711 76.9009 67.4336 76.6657L68.3387 76.0798L67.1117 74.1849L67.6625 73.8282ZM65.2359 75.3993L67.575 76.7978L66.9586 77.197L64.5867 75.8196L65.2359 75.3993ZM68.6191 76.5126L67.727 77.0903C67.3773 77.3169 67.177 77.5677 67.1254 77.8427C67.0699 78.1208 67.1281 78.3931 67.3008 78.6599C67.4766 78.931 67.6961 79.0927 67.9598 79.1454C68.2219 79.2052 68.5344 79.1177 68.8973 78.8829L69.7824 78.3095L68.6191 76.5126ZM64.1324 76.0798L66.443 81.0364L63.377 82.4657L63.1492 81.9771L65.6207 80.8251L64.8152 79.0974L62.5563 80.1501L62.332 79.6688L64.5906 78.6157L63.7656 76.8454L61.2941 77.9974L61.0664 77.5091L64.1324 76.0798ZM60.6633 77.6728L62.1262 82.9423L61.3887 83.147L58.5074 79.9821L57.6625 84.1817L56.9172 84.3884L55.4543 79.1192L56.0863 78.9435L57.2359 83.0837L58.0301 79.1985L58.5043 79.0669L61.1762 81.9735L60.0309 77.8485L60.6633 77.6728ZM54.7102 79.2942L55.4926 84.7067L54.843 84.8009L54.0609 79.388L54.7102 79.2942ZM51.2039 79.4599C51.5785 79.4466 51.9223 79.5103 52.2348 79.6505C52.5418 79.7907 52.7918 80.0114 52.9848 80.3122C53.1777 80.6181 53.2828 81.013 53.3 81.497L53.4203 84.9481L52.7645 84.9712L52.6438 81.5122C52.6313 81.1583 52.5641 80.8712 52.4418 80.6517C52.3141 80.4317 52.1445 80.2735 51.9324 80.1771C51.7207 80.0802 51.4793 80.0364 51.209 80.0458C50.9328 80.0556 50.6953 80.1157 50.4961 80.2271C50.2965 80.3384 50.1434 80.5079 50.0367 80.7356C49.9301 80.9634 49.8832 81.2544 49.8953 81.6083L50.0164 85.0673L49.3605 85.0899L49.2398 81.6392C49.223 81.1548 49.3 80.7536 49.4715 80.4349C49.6426 80.1216 49.8793 79.8837 50.1813 79.722C50.4832 79.5606 50.8238 79.4732 51.2039 79.4599ZM48.7059 79.622L47.9484 85.038L47.1902 84.9317L45.8082 80.881L43.3602 84.3962L42.5941 84.2892L43.352 78.8731L44.0016 78.9638L43.4066 83.2192L45.6828 79.972L46.1703 80.0403L47.4629 83.7708L48.0559 79.531L48.7059 79.622ZM38.956 77.5286L36.6445 82.4849L33.6283 81.0782L33.8561 80.5896L36.2776 81.7188L37.0899 79.9771L35.0295 79.0161L35.2541 78.5349L37.3145 79.4958L38.3612 77.2513L38.956 77.5286ZM35.5621 75.9134L32.613 80.5189L29.7642 78.6946L30.0549 78.2407L32.3511 79.711L33.379 78.1056L31.2802 76.7618L31.5667 76.3142L33.6655 77.6583L34.7187 76.0134L32.4225 74.5431L32.7132 74.0892L35.5621 75.9134ZM32.497 73.9731L27.4143 76.8259L26.8854 76.3747L28.9069 70.911L29.4359 71.3622L27.6852 75.9786L31.9739 73.5271L32.497 73.9731ZM30.8829 74.445L30.3955 74.7274L28.5113 73.12L28.7135 72.5942L30.8829 74.445ZM28.2492 70.0845L24.5728 73.3685L25.6605 74.586L25.2586 74.9454L22.6457 72.0204L23.0478 71.6614L24.1355 72.879L27.812 69.595L28.2492 70.0845ZM25.5093 66.4169C25.717 66.7294 25.843 67.0552 25.8873 67.3946C25.9288 67.7298 25.8721 68.0583 25.7171 68.3806C25.5578 68.7052 25.2765 69.0017 24.8732 69.27L21.9976 71.1817L21.6343 70.6353L24.5163 68.7192C24.8112 68.5231 25.0202 68.3153 25.1433 68.0958C25.2634 67.872 25.3092 67.6446 25.2806 67.4134C25.252 67.1821 25.1627 66.954 25.0128 66.7286C24.8599 66.4985 24.6839 66.3278 24.4847 66.2165C24.2855 66.1048 24.0609 66.0634 23.811 66.0923C23.5611 66.1208 23.2886 66.2329 22.9937 66.429L20.1116 68.3454L19.7483 67.7989L22.6238 65.8868C23.0272 65.6188 23.4094 65.4739 23.7706 65.4528C24.1274 65.4345 24.4538 65.5114 24.7497 65.6837C25.0456 65.856 25.2988 66.1005 25.5093 66.4169ZM23.9917 64.256L19.0391 66.5755L18.2903 64.9767C18.1092 64.5899 18.0272 64.2427 18.0444 63.9356C18.0569 63.631 18.144 63.3685 18.3057 63.1489C18.4675 62.9294 18.6852 62.7556 18.9587 62.6274C19.2229 62.504 19.4945 62.4513 19.7736 62.4704C20.0505 62.4845 20.3135 62.5853 20.5627 62.7735C20.8118 62.9618 21.028 63.2517 21.2114 63.6431L21.6687 64.6192L23.7134 63.6618L23.9917 64.256ZM22.7657 61.6384L21.0615 63.7649L20.75 63.1001L22.4377 60.938L22.7657 61.6384ZM21.2017 64.838L20.7511 63.8759C20.5744 63.4985 20.3532 63.2657 20.0875 63.1774C19.8196 63.0841 19.5418 63.1052 19.2541 63.2399C18.9616 63.3767 18.7714 63.5724 18.6833 63.8263C18.5883 64.0778 18.6325 64.3993 18.8158 64.7907L19.2632 65.7458L21.2017 64.838ZM22.2421 60.4528L17.0169 62.0669L16.0186 58.8349L16.5336 58.6755L17.3383 61.281L19.1596 60.7181L18.4242 58.3372L18.9318 58.1802L19.6672 60.5614L21.5334 59.9849L20.7287 57.3798L21.2438 57.2208L22.2421 60.4528ZM20.8861 54.8798C20.9537 55.2751 20.9406 55.6313 20.8468 55.9485C20.7531 56.2657 20.5915 56.5259 20.362 56.729C20.1325 56.9321 19.8483 57.0626 19.5095 57.1204L19.3937 56.4427C19.6042 56.4067 19.7909 56.3247 19.9539 56.1962C20.1118 56.0688 20.2289 55.9036 20.3051 55.7005C20.3753 55.4931 20.3867 55.2505 20.3393 54.9731C20.2981 54.7321 20.2245 54.5333 20.1186 54.377C20.0066 54.2165 19.8738 54.1044 19.7203 54.0407C19.5659 53.972 19.4014 53.9528 19.2268 53.9825C19.0164 54.0185 18.8548 54.0935 18.7423 54.2079C18.6237 54.3181 18.5365 54.4571 18.4807 54.6251C18.4249 54.7931 18.3837 54.9853 18.3572 55.2013C18.3247 55.4126 18.2914 55.6353 18.2572 55.8681C18.1863 56.3188 18.0601 56.6626 17.8787 56.8997C17.6973 57.1368 17.4346 57.2849 17.0906 57.3435C16.798 57.3935 16.5299 57.3708 16.2863 57.2751C16.0419 57.1739 15.8366 57.0083 15.6704 56.7778C15.4981 56.5431 15.3822 56.2513 15.3225 55.902C15.2637 55.5579 15.277 55.2493 15.3624 54.9759C15.4469 54.6974 15.5898 54.4669 15.7911 54.2845C15.9873 54.1028 16.2317 53.9872 16.5243 53.9372L16.6402 54.6149C16.4913 54.6403 16.3515 54.7036 16.2209 54.8052C16.0904 54.9067 15.9925 55.045 15.9272 55.22C15.856 55.3907 15.8406 55.5942 15.8809 55.8306C15.9091 56.0263 15.9723 56.195 16.0705 56.3368C16.1627 56.4743 16.2805 56.5759 16.4237 56.6411C16.5661 56.7013 16.7297 56.7157 16.9145 56.6841C17.0891 56.6544 17.2241 56.5942 17.3196 56.504C17.4143 56.4083 17.4883 56.2849 17.5416 56.1329C17.5889 55.977 17.6271 55.7989 17.6563 55.5981C17.6854 55.3978 17.7188 55.1755 17.7563 54.9313C17.7988 54.6544 17.8671 54.4052 17.9613 54.1829C18.0494 53.9563 18.1814 53.77 18.3571 53.6239C18.532 53.4724 18.7709 53.3708 19.0739 53.3192C19.3305 53.2751 19.5862 53.3028 19.841 53.4021C20.0896 53.497 20.3087 53.6653 20.4981 53.9079C20.6875 54.1505 20.8168 54.4743 20.8861 54.8798Z"
fill="white"
/>
<path
d="M35.6307 60.5843V63.98C35.6307 64.6015 36.1347 65.1054 36.7564 65.1054H63.8846C64.5061 65.1054 65.01 64.6015 65.01 63.98V60.5843H35.6307ZM69.0139 40.4257C68.8155 40.2987 68.5823 40.2366 68.3471 40.2491C68.112 40.2612 67.8866 40.3472 67.7026 40.494L59.5073 47.0503C59.3139 47.205 59.1772 47.419 59.1178 47.6597C59.0585 47.8999 59.0799 48.153 59.1792 48.38C59.3042 48.6655 59.3682 48.9737 59.3678 49.2854C59.3678 50.5347 58.3514 51.5511 57.1026 51.5511C55.8534 51.5511 54.837 50.5347 54.837 49.2854C54.837 48.5507 55.1971 47.8581 55.7999 47.4331C56.0198 47.2776 56.1772 47.0487 56.2428 46.7878C56.3085 46.5265 56.2784 46.2503 56.1581 46.0097L51.3272 36.3484C51.2339 36.1614 51.0901 36.0041 50.9124 35.8942C50.7342 35.7843 50.5296 35.7261 50.3202 35.7261C50.1112 35.7261 49.9065 35.7843 49.7284 35.8942C49.5506 36.0041 49.4069 36.1614 49.3135 36.3484L44.4827 46.0097C44.3624 46.2507 44.3323 46.5265 44.3979 46.7878C44.4635 47.0487 44.621 47.278 44.8409 47.4331C45.4436 47.8581 45.8038 48.5507 45.8038 49.2854C45.8038 50.5347 44.7874 51.5511 43.5382 51.5511C42.2889 51.5511 41.2729 50.5347 41.2729 49.2854C41.2729 48.9714 41.3362 48.6667 41.4616 48.38C41.5608 48.153 41.5823 47.8999 41.5229 47.6597C41.4635 47.419 41.3264 47.205 41.1335 47.0503L32.9383 40.494C32.7543 40.3472 32.5289 40.2612 32.2937 40.2491C32.0585 40.2366 31.8253 40.2987 31.6271 40.4257C31.4289 40.553 31.2755 40.739 31.1887 40.9581C31.1019 41.1769 31.0858 41.4175 31.143 41.646L35.3146 58.3331H65.326L69.4979 41.646C69.5549 41.4175 69.5389 41.1769 69.4522 40.9581C69.3655 40.739 69.212 40.553 69.0139 40.4257Z"
fill="#000B17"
/>
<path
d="M63.9788 60.0145V63.0195C63.9788 63.4254 63.6495 63.7547 63.2436 63.7547H36.1155C35.7097 63.7547 35.3805 63.4254 35.3804 63.0195V60.0145H63.9788ZM49.6796 35.1562C49.8159 35.1562 49.9503 35.1943 50.0663 35.2661C50.1823 35.3379 50.276 35.4405 50.337 35.5625L55.1674 45.2238C55.2464 45.3813 55.2663 45.5613 55.2233 45.7316C55.1803 45.9023 55.0776 46.052 54.9339 46.1531C54.2276 46.6512 53.8057 47.4625 53.8057 48.325C53.8057 49.7898 54.9967 50.9812 56.4616 50.9812C57.8807 50.9812 59.0432 49.8633 59.1143 48.4617L59.1178 48.325C59.1182 48.0051 59.0604 47.6883 58.9475 47.3895L58.896 47.2629C58.8315 47.1148 58.8174 46.9496 58.8561 46.7926C58.8948 46.6355 58.9842 46.4957 59.1104 46.3949L67.3061 39.8387C67.426 39.7426 67.5733 39.6867 67.7268 39.6785C67.8803 39.6707 68.0327 39.7109 68.162 39.7941C68.2913 39.8773 68.3917 39.9988 68.4487 40.1418C68.5053 40.2848 68.5155 40.4418 68.4784 40.591L64.3803 56.9816H34.9787L30.8814 40.591C30.8441 40.4418 30.8544 40.2848 30.9111 40.1418C30.9678 39.9988 31.0678 39.8773 31.1972 39.7941C31.3266 39.7109 31.4789 39.6707 31.6325 39.6785C31.7861 39.6867 31.9335 39.7426 32.0536 39.8387L40.2483 46.3949C40.3745 46.4961 40.4639 46.6355 40.503 46.7926C40.5417 46.9496 40.5276 47.1152 40.4628 47.2633C40.3159 47.5992 40.2417 47.9574 40.2417 48.325C40.2417 49.7898 41.4327 50.9812 42.8975 50.9812C44.3624 50.9809 45.5534 49.7898 45.5534 48.325C45.5534 47.4625 45.1315 46.6512 44.4253 46.1531C44.2819 46.052 44.1788 45.9027 44.1358 45.732C44.0928 45.5617 44.1131 45.3813 44.1917 45.2238L49.0221 35.5625C49.0831 35.4405 49.1768 35.3379 49.2928 35.2661C49.4092 35.1944 49.5428 35.1563 49.6796 35.1562Z"
fill="#F9F9FF"
stroke="#000B17"
/>
</svg>